<?xml version="1.0" encoding="UTF-8" standalone="no"?>
<!DOCTYPE svg PUBLIC "-//W3C//DTD SVG 1.1//EN" "http://www.w3.org/Graphics/SVG/1.1/DTD/svg11.dtd">
<svg width="100%" height="100%" viewBox="0 0 1425 1425" version="1.1" xmlns="http://www.w3.org/2000/svg" xmlns:xlink="http://www.w3.org/1999/xlink" xml:space="preserve" xmlns:serif="http://www.serif.com/" style="fill-rule:evenodd;clip-rule:evenodd;stroke-linejoin:round;stroke-miterlimit:2;">
    <g transform="matrix(1,0,0,1,-1.49408,-20.9175)">
        <rect x="-17.369" y="-11.953" width="1479.95" height="1544.44" style="fill:rgb(89,122,16);"/>
    </g>
    <g id="Search" transform="matrix(12.5052,7.72993e-31,-1.54138e-31,12.5425,-66125.2,-2939.56)">
        <path d="M5378.55,318.058C5375.82,320.091 5372.43,321.294 5368.76,321.294C5359.7,321.294 5352.35,313.952 5352.35,304.895C5352.35,295.838 5359.7,288.495 5368.76,288.495C5377.82,288.495 5385.17,295.838 5385.17,304.895C5385.17,308.808 5383.8,312.401 5381.51,315.221L5391.79,326.032C5392.57,326.853 5392.53,328.15 5391.71,328.93C5390.89,329.71 5389.59,329.676 5388.81,328.855L5378.55,318.058ZM5368.76,317.194C5361.97,317.194 5356.46,311.687 5356.46,304.895C5356.46,298.102 5361.97,292.595 5368.76,292.595C5375.56,292.595 5381.07,298.102 5381.07,304.895C5381.07,311.687 5375.56,317.194 5368.76,317.194Z" style="fill:white;"/>
    </g>
    <g id="Literature" transform="matrix(46.4811,3.58474e-30,-5.7295e-31,36.3519,-12650.8,-3324.17)">
        <path d="M293.656,98C291.027,98 288.833,99.107 287.5,101.064C286.168,99.107 283.972,98 281.344,98C278.28,98 275,99.64 275,102.081L275,120.428C275,120.621 275.105,120.798 275.274,120.89C275.443,120.98 275.65,120.971 275.808,120.865C275.849,120.838 279.893,118.169 283.156,118.169C285.269,118.169 286.523,119.284 286.989,121.581C286.992,121.596 287.002,121.609 287.006,121.624C287.015,121.653 287.025,121.679 287.038,121.706C287.054,121.736 287.07,121.763 287.09,121.789C287.107,121.811 287.124,121.831 287.144,121.85C287.168,121.874 287.194,121.893 287.222,121.911C287.245,121.926 287.267,121.94 287.292,121.951C287.325,121.965 287.359,121.973 287.394,121.982C287.412,121.985 287.428,121.995 287.448,121.998C287.465,121.999 287.482,122 287.499,122L287.501,122C287.518,122 287.535,121.998 287.553,121.998C287.571,121.995 287.588,121.986 287.606,121.982C287.641,121.973 287.675,121.966 287.708,121.951C287.732,121.94 287.755,121.926 287.777,121.911C287.806,121.893 287.832,121.874 287.856,121.85C287.876,121.831 287.893,121.811 287.91,121.789C287.929,121.763 287.946,121.736 287.96,121.706C287.973,121.679 287.984,121.653 287.992,121.624C287.997,121.609 288.006,121.596 288.01,121.581C288.476,119.284 289.73,118.169 291.844,118.169C295.106,118.169 299.151,120.838 299.191,120.865C299.35,120.971 299.556,120.98 299.725,120.89C299.894,120.798 299.999,120.621 299.999,120.428L299.999,102.081C300,99.64 296.72,98 293.656,98ZM283.156,117.121C280.472,117.121 277.456,118.67 276.042,119.493L276.042,102.081C276.042,100.494 278.57,99.049 281.345,99.049C283.855,99.049 285.901,100.199 286.979,102.211L286.979,118.891C286.12,117.725 284.83,117.121 283.156,117.121ZM298.958,119.493C297.545,118.67 294.528,117.121 291.845,117.121C290.171,117.121 288.881,117.725 288.021,118.891L288.021,102.211C289.1,100.2 291.147,99.049 293.656,99.049C296.431,99.049 298.958,100.495 298.958,102.081L298.958,119.493L298.958,119.493Z" style="fill:white;"/>
    </g>
</svg>
